<?xml version="1.0" encoding="utf-8"?>
<!-- Generator: Adobe Illustrator 25.2.3, SVG Export Plug-In . SVG Version: 6.00 Build 0)  -->
<svg version="1.1" id="Layer_1" xmlns="http://www.w3.org/2000/svg" xmlns:xlink="http://www.w3.org/1999/xlink" x="0px" y="0px"
	 viewBox="0 0 140.9 23.4" style="enable-background:new 0 0 140.9 23.4;" xml:space="preserve">
<style type="text/css">
	.st0{fill:#010202;}
</style>
<g>
	<path class="st0" d="M0.1,0.6v22.2h22.1V0.6H0.1z M18.5,15.9H9.2c-3.1,0-5.6-2.5-5.6-5.6V9.9c0-3.1,2.5-5.6,5.6-5.6h9.3V15.9z"/>
	<path d="M32.7,22.1c-1.1-0.5-1.9-1.3-2.5-2.3c-0.6-1-0.9-2.1-0.9-3.3c0-1.2,0.3-2.3,0.9-3.3c0.6-1,1.4-1.7,2.5-2.3
		c1.1-0.5,2.3-0.8,3.7-0.8c1.4,0,2.6,0.3,3.6,0.9c1,0.6,1.7,1.4,2.2,2.5l-3.3,1.7c-0.6-1.1-1.4-1.7-2.5-1.7c-0.8,0-1.4,0.3-1.9,0.8
		c-0.5,0.5-0.8,1.2-0.8,2.1c0,0.9,0.3,1.7,0.8,2.2c0.5,0.5,1.1,0.8,1.9,0.8c1.1,0,1.9-0.6,2.5-1.7l3.3,1.7c-0.4,1.1-1.1,1.9-2.2,2.5
		c-1,0.6-2.2,0.9-3.6,0.9C35,23,33.8,22.7,32.7,22.1z"/>
	<path d="M46,22.1c-1.1-0.5-1.9-1.3-2.5-2.3c-0.6-1-0.9-2.1-0.9-3.3c0-1.2,0.3-2.3,0.9-3.3c0.6-1,1.4-1.7,2.5-2.3
		c1.1-0.5,2.2-0.8,3.6-0.8c1.3,0,2.5,0.3,3.6,0.8c1.1,0.5,1.9,1.3,2.5,2.3c0.6,1,0.9,2.1,0.9,3.3c0,1.2-0.3,2.3-0.9,3.3
		c-0.6,1-1.4,1.7-2.5,2.3c-1.1,0.5-2.3,0.8-3.6,0.8C48.3,23,47.1,22.7,46,22.1z M51.5,18.7c0.5-0.5,0.7-1.2,0.7-2.2
		c0-0.9-0.2-1.6-0.7-2.1c-0.5-0.5-1.1-0.8-1.9-0.8c-0.8,0-1.4,0.3-1.9,0.8c-0.5,0.5-0.7,1.2-0.7,2.1c0,0.9,0.2,1.7,0.7,2.2
		c0.5,0.5,1.1,0.8,1.9,0.8C50.4,19.5,51,19.3,51.5,18.7z"/>
	<path d="M58.4,5.9h4.3v16.9h-4.3V5.9z"/>
	<path d="M67.9,22.1c-1.1-0.5-1.9-1.3-2.5-2.3c-0.6-1-0.9-2.1-0.9-3.3c0-1.2,0.3-2.3,0.9-3.3c0.6-1,1.4-1.7,2.5-2.3
		c1.1-0.5,2.2-0.8,3.6-0.8c1.3,0,2.5,0.3,3.6,0.8c1.1,0.5,1.9,1.3,2.5,2.3c0.6,1,0.9,2.1,0.9,3.3c0,1.2-0.3,2.3-0.9,3.3
		c-0.6,1-1.4,1.7-2.5,2.3C74,22.7,72.8,23,71.4,23C70.1,23,68.9,22.7,67.9,22.1z M73.3,18.7c0.5-0.5,0.7-1.2,0.7-2.2
		c0-0.9-0.2-1.6-0.7-2.1c-0.5-0.5-1.1-0.8-1.9-0.8c-0.8,0-1.4,0.3-1.9,0.8c-0.5,0.5-0.7,1.2-0.7,2.1c0,0.9,0.2,1.7,0.7,2.2
		c0.5,0.5,1.1,0.8,1.9,0.8C72.2,19.5,72.8,19.3,73.3,18.7z"/>
	<path d="M86,10.6c0.7-0.3,1.5-0.4,2.4-0.4v3.9c-0.4,0-0.7-0.1-1-0.1c-0.9,0-1.7,0.3-2.2,0.8c-0.5,0.5-0.8,1.3-0.8,2.3v5.7h-4.3
		V10.4h4.1v1.5C84.7,11.3,85.3,10.9,86,10.6z"/>
	<path d="M101.5,22.1c-1.1-0.5-1.9-1.3-2.5-2.3c-0.6-1-0.9-2.1-0.9-3.3c0-1.2,0.3-2.3,0.9-3.3c0.6-1,1.4-1.7,2.5-2.3
		c1.1-0.5,2.2-0.8,3.6-0.8c1.3,0,2.5,0.3,3.6,0.8c1.1,0.5,1.9,1.3,2.5,2.3c0.6,1,0.9,2.1,0.9,3.3c0,1.2-0.3,2.3-0.9,3.3
		c-0.6,1-1.4,1.7-2.5,2.3c-1.1,0.5-2.3,0.8-3.6,0.8C103.8,23,102.6,22.7,101.5,22.1z M107,18.7c0.5-0.5,0.7-1.2,0.7-2.2
		c0-0.9-0.2-1.6-0.7-2.1c-0.5-0.5-1.1-0.8-1.9-0.8c-0.8,0-1.4,0.3-1.9,0.8c-0.5,0.5-0.7,1.2-0.7,2.1c0,0.9,0.2,1.7,0.7,2.2
		c0.5,0.5,1.1,0.8,1.9,0.8C105.9,19.5,106.5,19.3,107,18.7z"/>
	<path d="M113.8,5.9h4.3v16.9h-4.3V5.9z"/>
	<path d="M121,8.4c-0.5-0.4-0.7-1-0.7-1.6c0-0.7,0.2-1.2,0.7-1.6c0.5-0.4,1.1-0.7,1.9-0.7c0.8,0,1.4,0.2,1.9,0.6
		c0.5,0.4,0.7,1,0.7,1.6c0,0.7-0.2,1.2-0.7,1.7c-0.5,0.4-1.1,0.7-1.9,0.7C122.1,9.1,121.5,8.8,121,8.4z M120.7,10.4h4.3v12.3h-4.3
		V10.4z"/>
	<path d="M130.2,22.1c-1.1-0.5-1.9-1.3-2.5-2.3c-0.6-1-0.9-2.1-0.9-3.3c0-1.2,0.3-2.3,0.9-3.3c0.6-1,1.4-1.7,2.5-2.3
		c1.1-0.5,2.2-0.8,3.6-0.8c1.3,0,2.5,0.3,3.6,0.8c1.1,0.5,1.9,1.3,2.5,2.3c0.6,1,0.9,2.1,0.9,3.3c0,1.2-0.3,2.3-0.9,3.3
		c-0.6,1-1.4,1.7-2.5,2.3c-1.1,0.5-2.3,0.8-3.6,0.8C132.5,23,131.3,22.7,130.2,22.1z M135.7,18.7c0.5-0.5,0.7-1.2,0.7-2.2
		c0-0.9-0.2-1.6-0.7-2.1c-0.5-0.5-1.1-0.8-1.9-0.8c-0.8,0-1.4,0.3-1.9,0.8c-0.5,0.5-0.7,1.2-0.7,2.1c0,0.9,0.2,1.7,0.7,2.2
		c0.5,0.5,1.1,0.8,1.9,0.8C134.6,19.5,135.2,19.3,135.7,18.7z"/>
	<path d="M94.7,10.6c0-0.5,0.1-0.9,0.4-1.2C95.4,9.1,95.7,9,96.2,9c0.4,0,0.9,0.1,1.3,0.4l1.1-3c-0.3-0.2-0.8-0.4-1.3-0.5
		c-0.5-0.1-1-0.2-1.6-0.2c-1.6,0-2.9,0.4-3.8,1.3c-0.9,0.9-1.4,2.1-1.4,3.6v0.3H89v3.2h1.5v8.6h4.3v-8.6h2.8v-3.2h-2.9V10.6z"/>
</g>
</svg>
