<?xml version="1.0" encoding="utf-8"?>
<!-- Generator: Adobe Illustrator 26.0.1, SVG Export Plug-In . SVG Version: 6.00 Build 0)  -->
<svg version="1.1" id="Layer_1" xmlns="http://www.w3.org/2000/svg" xmlns:xlink="http://www.w3.org/1999/xlink" x="0px" y="0px"
	 viewBox="0 0 140.9 23.4" style="enable-background:new 0 0 140.9 23.4;" xml:space="preserve">
<style type="text/css">
	.st0{fill:#010202;}
</style>
<g>
	<path class="st0" d="M0.1,0.6v22.2h22.1V0.6H0.1z M18.5,15.9H9.2c-3.1,0-5.6-2.5-5.6-5.6V9.9c0-3.1,2.5-5.6,5.6-5.6h9.3V15.9z"/>
</g>
<path d="M38,18.4c-0.6,1.1-1.4,1.6-2.6,1.6c-0.9,0-1.6-0.3-2.1-0.8c-0.6-0.6-0.8-1.3-0.8-2.3s0.3-1.8,0.8-2.3
	c0.6-0.6,1.3-0.8,2.1-0.8c1.1,0,2,0.5,2.6,1.6l0.1,0.1l2.9-1.6l-0.1-0.1c-0.4-1-1.2-1.8-2.1-2.3c-1-0.5-2.1-0.8-3.4-0.8
	c-1.3,0-2.5,0.3-3.5,0.8s-1.9,1.3-2.4,2.2c-0.6,1-0.9,2.1-0.9,3.3c0,1.2,0.3,2.3,0.9,3.3s1.4,1.7,2.4,2.2s2.2,0.8,3.5,0.8
	s2.4-0.3,3.4-0.8s1.7-1.3,2.1-2.3l0.1-0.1l-3-1.6V18.4z M51.8,11.3c-1-0.5-2.2-0.8-3.5-0.8s-2.4,0.3-3.5,0.8c-1,0.5-1.8,1.3-2.4,2.3
	c-0.6,1-0.9,2.1-0.9,3.3c0,1.2,0.3,2.3,0.9,3.3c0.6,1,1.4,1.7,2.4,2.2s2.2,0.8,3.5,0.8s2.4-0.3,3.5-0.8c1-0.5,1.8-1.3,2.4-2.2
	c0.6-1,0.9-2.1,0.9-3.3s-0.3-2.3-0.9-3.3C53.7,12.6,52.8,11.8,51.8,11.3z M50.5,19.1C50,19.7,49.3,20,48.4,20
	c-0.8,0-1.6-0.3-2.1-0.9s-0.8-1.3-0.8-2.3s0.3-1.7,0.8-2.3s1.3-0.9,2.1-0.9s1.5,0.3,2.1,0.9c0.5,0.6,0.8,1.3,0.8,2.3
	C51.3,17.8,51,18.6,50.5,19.1z M74.1,11.3c-1-0.5-2.2-0.8-3.5-0.8s-2.4,0.3-3.5,0.8c-1,0.5-1.8,1.3-2.4,2.3s-0.9,2.1-0.9,3.3
	s0.3,2.3,0.9,3.3s1.4,1.7,2.4,2.2s2.2,0.8,3.5,0.8s2.4-0.3,3.5-0.8c1-0.5,1.8-1.3,2.4-2.2c0.6-1,0.9-2.1,0.9-3.3s-0.3-2.3-0.9-3.3
	S75.1,11.8,74.1,11.3z M72.7,19.1c-0.5,0.6-1.2,0.9-2.1,0.9c-0.8,0-1.6-0.3-2.1-0.9s-0.8-1.3-0.8-2.3s0.3-1.7,0.8-2.3
	s1.3-0.9,2.1-0.9c0.8,0,1.5,0.3,2.1,0.9c0.5,0.6,0.8,1.3,0.8,2.3C73.5,17.8,73.2,18.6,72.7,19.1z M84.5,11c-0.6,0.2-1.1,0.6-1.5,1
	v-1.3h-3.6V23h3.8v-5.8c0-1.1,0.3-1.9,0.8-2.4s1.3-0.8,2.2-0.8c0.1,0,0.4,0,0.8,0h0.2v-3.5H87C86,10.5,85.2,10.6,84.5,11z M95.4,9
	c0.5,0,0.9,0.1,1.3,0.4l0.2,0.1l1-2.8l-0.1-0.1c-0.3-0.2-0.7-0.4-1.2-0.5s-1-0.2-1.5-0.2c-1.5,0-2.7,0.4-3.5,1.2s-1.3,2-1.3,3.4v0.4
	h-1.9v3h1.9v9h3.8v-9h3v-3H94v-0.4C94,9.5,94.4,9,95.4,9z M108.5,11.3c-1-0.5-2.2-0.8-3.5-0.8s-2.4,0.3-3.5,0.8
	c-1,0.5-1.8,1.3-2.4,2.3s-0.9,2.1-0.9,3.3c0,1.2,0.3,2.3,0.9,3.3s1.4,1.7,2.4,2.2s2.2,0.8,3.5,0.8s2.4-0.3,3.5-0.8
	c1-0.5,1.8-1.3,2.4-2.2c0.6-1,0.9-2.1,0.9-3.3s-0.3-2.3-0.9-3.3C110.4,12.6,109.6,11.8,108.5,11.3z M107.2,19.1
	c-0.5,0.6-1.2,0.9-2.1,0.9c-0.8,0-1.6-0.3-2.1-0.9s-0.8-1.3-0.8-2.3s0.3-1.7,0.8-2.3s1.3-0.9,2.1-0.9c0.8,0,1.5,0.3,2.1,0.9
	c0.5,0.6,0.8,1.3,0.8,2.3C108,17.8,107.7,18.6,107.2,19.1z M121.5,23h3.8V10.7h-3.8V23z M123.3,5.1c-0.7,0-1.2,0.2-1.7,0.6
	c-0.4,0.4-0.7,0.9-0.7,1.5s0.2,1.1,0.7,1.5c0.4,0.4,1,0.6,1.7,0.6s1.2-0.2,1.7-0.6c0.4-0.4,0.6-0.9,0.6-1.5s-0.2-1.1-0.7-1.4
	C124.6,5.3,124,5.1,123.3,5.1z M139.9,13.6c-0.6-1-1.4-1.7-2.4-2.3c-1-0.5-2.2-0.8-3.5-0.8s-2.4,0.3-3.5,0.8c-1,0.5-1.8,1.3-2.4,2.3
	c-0.6,1-0.9,2.1-0.9,3.3c0,1.2,0.3,2.3,0.9,3.3c0.6,1,1.4,1.7,2.4,2.2s2.2,0.8,3.5,0.8s2.4-0.3,3.5-0.8c1-0.5,1.8-1.3,2.4-2.2
	c0.6-1,0.9-2.1,0.9-3.3C140.8,15.6,140.5,14.5,139.9,13.6z M136.1,19.1c-0.5,0.6-1.2,0.9-2.1,0.9s-1.6-0.3-2.1-0.9s-0.8-1.3-0.8-2.3
	s0.3-1.7,0.8-2.3c0.6-0.6,1.2-0.9,2.1-0.9c0.8,0,1.5,0.3,2.1,0.9c0.5,0.6,0.8,1.3,0.8,2.3C137,17.8,136.7,18.6,136.1,19.1z
	 M62.4,19.7c-0.2,0.1-0.5,0.2-0.7,0.2c-0.8,0-0.8-1.1-0.8-1.6V6.7h-3.8v11.5c0,0.8,0.2,4.8,3.7,4.8c0.9,0,1.6-0.2,2.3-0.6l0.1-0.1
	l-0.7-2.8L62.4,19.7z M119.2,19.7c-0.2,0.1-0.5,0.2-0.7,0.2c-0.8,0-0.8-1.1-0.8-1.6V6.7h-3.8v11.5c0,0.8,0.2,4.8,3.7,4.8
	c0.9,0,1.6-0.2,2.3-0.6l0.1-0.1l-0.7-2.8L119.2,19.7z"/>
</svg>
